<?xml version="1.0" encoding="UTF-8" standalone="no"?>
<!-- Created with Inkscape (http://www.inkscape.org/) -->

<svg
   width="95.189537mm"
   height="54.793507mm"
   viewBox="0 0 95.189537 54.793507"
   version="1.1"
   id="svg1"
   xml:space="preserve"
   inkscape:version="1.3.2 (091e20e, 2023-11-25, custom)"
   sodipodi:docname="nn_logo3.svg"
   xmlns:inkscape="http://www.inkscape.org/namespaces/inkscape"
   xmlns:sodipodi="http://sodipodi.sourceforge.net/DTD/sodipodi-0.dtd"
   xmlns="http://www.w3.org/2000/svg"
   xmlns:svg="http://www.w3.org/2000/svg"><sodipodi:namedview
     id="namedview1"
     pagecolor="#ffffff"
     bordercolor="#000000"
     borderopacity="0.25"
     inkscape:showpageshadow="2"
     inkscape:pageopacity="0.0"
     inkscape:pagecheckerboard="0"
     inkscape:deskcolor="#d1d1d1"
     inkscape:document-units="mm"
     inkscape:zoom="0.70710678"
     inkscape:cx="185.96908"
     inkscape:cy="768.62507"
     inkscape:window-width="1920"
     inkscape:window-height="1129"
     inkscape:window-x="-8"
     inkscape:window-y="-8"
     inkscape:window-maximized="1"
     inkscape:current-layer="layer1"
     showgrid="false" /><defs
     id="defs1" /><g
     inkscape:label="Warstwa 1"
     inkscape:groupmode="layer"
     id="layer1"
     transform="translate(-53.918157,-105.53671)"><rect
       style="display:none;fill:none;stroke-width:0.746001"
       id="rect2"
       width="187.06041"
       height="112.44791"
       x="10.054167"
       y="96.043747" /><path
       id="rect1-8"
       style="display:inline;fill:#93aca7;fill-opacity:1;stroke:none;stroke-width:0.746;stroke-dasharray:none"
       d="m 81.763485,105.53671 v 24.31066 l 4.361491,5.17178 v -29.48244 z m -21.088119,4.4757 -6.75721,5.69836 v 43.19219 h 4.361491 v -43.19219 l 4.208528,-3.54914 z m 6.443535,16.17989 v 5.17177 l 14.644584,17.36535 h 4.361491 z"
       inkscape:export-filename="nearnet_logotype.svg"
       inkscape:export-xdpi="96"
       inkscape:export-ydpi="96" /><path
       id="rect1-8-6"
       style="display:inline;fill:#374845;stroke:none;stroke-width:0.746;stroke-dasharray:none"
       d="m 94.963713,105.53671 v 43.19271 h 4.477762 v -43.19271 z m -25.449093,4.4757 -2.616895,2.20658 19.227251,22.80016 v -5.30975 z m -2.395719,16.17989 v 32.71066 h 4.477762 v -27.40091 z" /><path
       id="rect1-8-0"
       style="display:inline;fill:#93aca7;fill-opacity:1;stroke:none;stroke-width:0.746;stroke-dasharray:none"
       d="m 131.4297,106.96397 v 24.31066 l 4.36149,5.17178 v -29.48244 z m -21.08812,4.4757 -6.75721,5.69836 v 43.19219 h 4.36149 v -43.19219 l 4.20853,-3.54914 z m 6.44353,16.17989 v 5.17177 l 14.64459,17.36535 h 4.36149 z" /><path
       id="rect1-8-6-7"
       style="display:inline;fill:#374845;stroke:none;stroke-width:0.746;stroke-dasharray:none"
       d="m 144.62993,106.96397 v 43.19271 h 4.47776 v -43.19271 z m -25.4491,4.4757 -2.61689,2.20658 19.22725,22.80016 v -5.30975 z m -2.39572,16.17989 v 32.71066 h 4.47776 v -27.40091 z" /></g></svg>
