<?xml version="1.0" encoding="UTF-8" standalone="no"?>
<!-- Created with Inkscape (http://www.inkscape.org/) -->

<svg
   width="161.05832mm"
   height="88.932045mm"
   viewBox="0 0 161.05832 88.932045"
   version="1.1"
   id="svg1"
   xml:space="preserve"
   inkscape:version="1.3.2 (091e20e, 2023-11-25, custom)"
   sodipodi:docname="nn_logo3.svg"
   xmlns:inkscape="http://www.inkscape.org/namespaces/inkscape"
   xmlns:sodipodi="http://sodipodi.sourceforge.net/DTD/sodipodi-0.dtd"
   xmlns="http://www.w3.org/2000/svg"
   xmlns:svg="http://www.w3.org/2000/svg"><sodipodi:namedview
     id="namedview1"
     pagecolor="#ffffff"
     bordercolor="#000000"
     borderopacity="0.25"
     inkscape:showpageshadow="2"
     inkscape:pageopacity="0.0"
     inkscape:pagecheckerboard="0"
     inkscape:deskcolor="#d1d1d1"
     inkscape:document-units="mm"
     inkscape:zoom="0.70710678"
     inkscape:cx="185.96908"
     inkscape:cy="768.62507"
     inkscape:window-width="1920"
     inkscape:window-height="1129"
     inkscape:window-x="-8"
     inkscape:window-y="-8"
     inkscape:window-maximized="1"
     inkscape:current-layer="layer1"
     showgrid="false" /><defs
     id="defs1" /><g
     inkscape:label="Warstwa 1"
     inkscape:groupmode="layer"
     id="layer1"
     transform="translate(-23.055211,-105.53671)"><rect
       style="display:none;fill:none;stroke-width:0.746001"
       id="rect2"
       width="187.06041"
       height="112.44791"
       x="10.054167"
       y="96.043747" /><path
       id="rect1-8"
       style="display:inline;fill:#93aca7;fill-opacity:1;stroke:none;stroke-width:0.746;stroke-dasharray:none"
       d="m 81.763485,105.53671 v 24.31066 l 4.361491,5.17178 v -29.48244 z m -21.088119,4.4757 -6.75721,5.69836 v 43.19219 h 4.361491 v -43.19219 l 4.208528,-3.54914 z m 6.443535,16.17989 v 5.17177 l 14.644584,17.36535 h 4.361491 z"
       inkscape:export-filename="nearnet_logotyp.svg"
       inkscape:export-xdpi="96"
       inkscape:export-ydpi="96" /><path
       id="rect1-8-6"
       style="display:inline;fill:#374845;stroke:none;stroke-width:0.746;stroke-dasharray:none"
       d="m 94.963713,105.53671 v 43.19271 h 4.477762 v -43.19271 z m -25.449093,4.4757 -2.616895,2.20658 19.227251,22.80016 v -5.30975 z m -2.395719,16.17989 v 32.71066 h 4.477762 v -27.40091 z" /><path
       id="rect1-8-0"
       style="display:inline;fill:#93aca7;fill-opacity:1;stroke:none;stroke-width:0.746;stroke-dasharray:none"
       d="m 131.4297,106.96397 v 24.31066 l 4.36149,5.17178 v -29.48244 z m -21.08812,4.4757 -6.75721,5.69836 v 43.19219 h 4.36149 v -43.19219 l 4.20853,-3.54914 z m 6.44353,16.17989 v 5.17177 l 14.64459,17.36535 h 4.36149 z" /><path
       id="rect1-8-6-7"
       style="display:inline;fill:#374845;stroke:none;stroke-width:0.746;stroke-dasharray:none"
       d="m 144.62993,106.96397 v 43.19271 h 4.47776 v -43.19271 z m -25.4491,4.4757 -2.61689,2.20658 19.22725,22.80016 v -5.30975 z m -2.39572,16.17989 v 32.71066 h 4.47776 v -27.40091 z" /><path
       style="font-size:35.2778px;line-height:1;font-family:Aldrich;-inkscape-font-specification:Aldrich;fill:#374845;fill-opacity:1;stroke-width:0.746"
       d="M 26.586436,194.46875 H 23.055211 V 169.7674 h 3.531225 l 14.848372,19.15474 V 169.7674 h 3.531225 v 24.70135 H 41.434808 L 26.586436,175.31401 Z m 39.894233,-7.44141 h -12.14397 v 4.04799 h 12.14397 v 3.39342 h -12.14397 q -0.68902,0 -1.309137,-0.25838 -0.620118,-0.27561 -1.085206,-0.72347 -0.447863,-0.46509 -0.723471,-1.08521 -0.258382,-0.62012 -0.258382,-1.32636 v -11.5583 q 0,-0.70625 0.258382,-1.32637 0.275608,-0.62011 0.723471,-1.06798 0.465088,-0.46509 1.085206,-0.72347 0.620117,-0.27561 1.309137,-0.27561 h 8.750548 q 0.706245,0 1.326363,0.27561 0.620118,0.25838 1.06798,0.72347 0.465088,0.44787 0.723471,1.06798 0.275608,0.62012 0.275608,1.32637 z m -12.14397,-7.51031 v 4.11689 h 8.750548 v -4.11689 z m 17.793932,6.94187 q 0,-0.70625 0.258382,-1.30914 0.275608,-0.62012 0.723471,-1.08521 0.465088,-0.46508 1.085206,-0.72347 0.620117,-0.2756 1.309137,-0.2756 h 8.750548 v -3.54845 H 73.181386 v -3.39343 h 11.075989 q 0.706245,0 1.326363,0.27561 0.620117,0.25838 1.06798,0.72347 0.465088,0.44787 0.723471,1.06798 0.275608,0.62012 0.275608,1.32637 v 14.95172 h -3.393422 v -3.10059 q -0.05168,0.63735 -0.34451,1.20579 -0.292833,0.56844 -0.757921,0.99907 -0.447863,0.41342 -1.033529,0.65457 -0.585667,0.24116 -1.240236,0.24116 h -5.374352 q -0.68902,0 -1.309137,-0.25838 -0.620118,-0.27561 -1.085206,-0.72347 -0.447863,-0.46509 -0.723471,-1.08521 -0.258382,-0.62012 -0.258382,-1.32636 z m 3.376196,4.61643 h 8.750548 v -4.61643 h -8.750548 z m 21.170128,-11.5583 v 14.95172 H 93.300759 V 176.1236 h 3.376196 v 3.2384 q 0.03445,-0.6718 0.310058,-1.25746 0.275608,-0.6029 0.723471,-1.03353 0.465088,-0.44787 1.06798,-0.68902 0.602892,-0.25839 1.291916,-0.25839 h 3.60012 q 0.70625,0 1.30914,0.27561 0.62012,0.25838 1.08521,0.72347 0.46508,0.44787 0.72347,1.06798 0.2756,0.62012 0.2756,1.32637 v 3.10058 h -3.39342 v -3.10058 z m 29.059395,14.95172 h -3.53122 V 169.7674 h 3.53122 l 14.84838,19.15474 V 169.7674 h 3.53122 v 24.70135 h -3.53122 l -14.84838,-19.15474 z m 39.89424,-7.44141 h -12.14397 v 4.04799 h 12.14397 v 3.39342 h -12.14397 q -0.68902,0 -1.30914,-0.25838 -0.62012,-0.27561 -1.08521,-0.72347 -0.44786,-0.46509 -0.72347,-1.08521 -0.25838,-0.62012 -0.25838,-1.32636 v -11.5583 q 0,-0.70625 0.25838,-1.32637 0.27561,-0.62011 0.72347,-1.06798 0.46509,-0.46509 1.08521,-0.72347 0.62012,-0.27561 1.30914,-0.27561 h 8.75054 q 0.70625,0 1.32637,0.27561 0.62012,0.25838 1.06798,0.72347 0.46509,0.44787 0.72347,1.06798 0.27561,0.62012 0.27561,1.32637 z m -12.14397,-7.51031 v 4.11689 h 8.75054 v -4.11689 z m 16.72594,-3.39343 h 4.47863 v -5.64996 h 3.39342 v 5.64996 h 6.02892 v 3.39343 h -6.02892 v 11.5583 h 6.02892 v 3.39342 h -6.02892 q -0.68902,0 -1.30914,-0.25838 -0.62012,-0.27561 -1.0852,-0.72347 -0.46509,-0.46509 -0.7407,-1.08521 -0.25838,-0.62012 -0.25838,-1.32636 v -11.5583 h -4.47863 z"
       id="text1"
       aria-label="Near Net" /></g></svg>
